<svg width="50" height="50" viewBox="0 0 50 50" fill="none" xmlns="http://www.w3.org/2000/svg">
<path d="M50 24.9742C49.9272 38.752 39.1187 49.5888 25.7812 49.9884C11.5448 50.4149 0.0744844 39.0559 0.000360922 25.1279C-0.0724148 11.4148 10.8696 0.135302 24.7091 0.00122344C38.713 -0.134203 49.9191 10.9903 50 24.9742ZM42.9111 37.1067C48.3558 29.5053 48.4117 17.0818 39.6355 9.00943C30.9442 1.01524 17.3055 1.51449 9.28399 10.0807C1.21531 18.6968 2.26921 30.5476 7.12834 37.0925C12.0946 32.2078 18.0487 29.605 25.0251 29.607C32.0001 29.6084 37.9502 32.2206 42.9111 37.1067Z" fill="white"/>
<path d="M25.046 6.65592C30.5271 6.6411 35.0109 11.156 35.0116 16.6903C35.0122 22.143 30.5338 26.6377 25.0831 26.6552C19.5508 26.6734 15.0144 22.201 15.0124 16.7253C15.0104 11.1263 19.4497 6.67142 25.046 6.65592Z" fill="white"/>
</svg>
